<?xml version="1.0" encoding="utf-8"?>
<!-- Generator: Adobe Illustrator 25.0.1, SVG Export Plug-In . SVG Version: 6.00 Build 0)  -->
<svg version="1.1" id="Layer_1" xmlns="http://www.w3.org/2000/svg" xmlns:xlink="http://www.w3.org/1999/xlink" x="0px" y="0px"
	 viewBox="0 0 360 360" style="enable-background:new 0 0 360 360;" xml:space="preserve">
<style type="text/css">
	.st0{fill:none;stroke:#FFFFFF;stroke-width:13;stroke-miterlimit:10;}
</style>
<g>
	<path class="st0" d="M153.6,75.8c0-12.2,0-32.9,0-32.9c0-2.1,1.8-3.8,4.1-3.8h27.7c2.2,0,4.1,1.7,4.1,3.8c0,0,0,21.4,0,34
		c0,29.8,0,85.8,0,85.8c0,2.1-1.8,3.8-4.1,3.8h-27.7c-2.2,0-4.1-1.7-4.1-3.8C153.6,162.6,153.6,106,153.6,75.8"/>
</g>
<path class="st0" d="M190.8,88.3c56.7,9.3,100,58.5,100,117.7c0,66-53.5,119.3-119.3,119.3S52.2,271.8,52.2,206
	c0-60.3,44.7-110.1,102.9-118.3"/>
<path class="st0" d="M186.4,126.9c37.3,7,65.4,39.7,65.4,79c0,44.5-36,80.4-80.4,80.4s-80.4-36-80.4-80.4c0-39.3,28.2-72.1,65.4-79"
	/>
</svg>
