<?xml version="1.0" encoding="utf-8"?>
<!-- Generator: Adobe Illustrator 25.0.1, SVG Export Plug-In . SVG Version: 6.00 Build 0)  -->
<svg version="1.1" id="Layer_1" xmlns="http://www.w3.org/2000/svg" xmlns:xlink="http://www.w3.org/1999/xlink" x="0px" y="0px"
	 viewBox="0 0 600 600" style="enable-background:new 0 0 600 600;" xml:space="preserve">
<style type="text/css">
	.st0{fill:none;stroke:#FFFFFF;stroke-width:20;stroke-miterlimit:10;}
	.st1{fill:none;stroke:#050505;stroke-width:6;stroke-miterlimit:10;}
	.st2{fill:#FFFFFF;stroke:#FFFFFF;stroke-width:20;stroke-miterlimit:10;}
</style>
<path class="st0" d="M554,300c0,140.3-113.7,254-254,254c-101.1,0-170.6-65.3-180.1-74.9c-9.7-9.8-76.4-78.9-73.9-179.1
	C49,181.2,148.7,46,300,46C440.3,46,554,159.7,554,300z"/>
<path class="st1" d="M292,388"/>
<path class="st2" d="M502.5,432c-38.6-22.4-144.1-76.5-277.4-56.1c-53.5,8.2-96.6,26.1-127.7,42.6c7.7,13.5,20.6,33,40.7,52.3
	c67.8,65.3,152.9,66.9,164.5,67c64.3,0.3,111.8-25.9,134.8-41.3C470.2,474.5,490.9,448.9,502.5,432z"/>
<circle class="st2" cx="300" cy="254" r="101.5"/>
</svg>
