<?xml version="1.0" encoding="utf-8"?>
<!-- Generator: Adobe Illustrator 25.0.1, SVG Export Plug-In . SVG Version: 6.00 Build 0)  -->
<svg version="1.1" id="Layer_1" xmlns="http://www.w3.org/2000/svg" xmlns:xlink="http://www.w3.org/1999/xlink" x="0px" y="0px"
	 viewBox="0 0 24 24" style="enable-background:new 0 0 24 24;" xml:space="preserve">
<style type="text/css">
	.st0{fill:#3CB9D9;}
</style>
<path class="st0" d="M17.9,20.7l3.6,0.7l-0.7-3.6L8.5,5.6l1.4-1.4l12.7,12.7L24,24l-7.1-1.4L4.2,9.9l1.4-1.4
	C5.6,8.5,17.9,20.7,17.9,20.7z M0,5.7l2.8,2.8l5.7-5.7L5.7,0C5.7,0,0,5.7,0,5.7z M18.7,18L7.4,6.7L6.7,7.4L18,18.7
	C18,18.7,18.7,18,18.7,18z"/>
<rect x="4.5" y="10.2" transform="matrix(-0.7071 -0.7071 0.7071 -0.7071 13.2055 31.832)" class="st0" width="17.4" height="6.1"/>
<polygon class="st0" points="21.9,21.9 20.8,17.3 17.3,20.7 "/>
</svg>
