<?xml version="1.0" encoding="utf-8"?>
<!-- Generator: Adobe Illustrator 25.0.1, SVG Export Plug-In . SVG Version: 6.00 Build 0)  -->
<svg version="1.1" id="Layer_1" xmlns="http://www.w3.org/2000/svg" xmlns:xlink="http://www.w3.org/1999/xlink" x="0px" y="0px"
	 viewBox="0 0 24 24" style="enable-background:new 0 0 24 24;" xml:space="preserve">
<style type="text/css">
	.st0{fill:#FFFFFF;}
</style>
<path class="st0" d="M24,13.6v-3.2c-1.7-0.6-2.7-0.8-3.2-2v0c-0.5-1.3,0.1-2.1,0.8-3.7l-2.3-2.3c-1.6,0.7-2.4,1.4-3.7,0.8h0
	c-1.3-0.5-1.4-1.6-2-3.2h-3.2c-0.6,1.6-0.7,2.7-2,3.2h0C7.1,3.7,6.2,3.1,4.7,2.4L2.4,4.7c0.7,1.6,1.4,2.4,0.8,3.7
	c-0.5,1.3-1.6,1.4-3.2,2v3.2c1.6,0.6,2.7,0.7,3.2,2c0.5,1.3-0.1,2.2-0.8,3.7l2.3,2.3c1.6-0.7,2.4-1.4,3.7-0.8h0
	c1.3,0.5,1.4,1.6,2,3.2h3.2c0.6-1.6,0.8-2.7,2-3.2h0c1.3-0.5,2.1,0.1,3.7,0.9l2.3-2.3c-0.7-1.6-1.4-2.4-0.8-3.7
	C21.3,14.4,22.4,14.2,24,13.6z M12,16c-2.2,0-4-1.8-4-4s1.8-4,4-4s4,1.8,4,4S14.2,16,12,16z"/>
</svg>
