<?xml version="1.0" encoding="utf-8"?>
<!-- Generator: Adobe Illustrator 25.0.1, SVG Export Plug-In . SVG Version: 6.00 Build 0)  -->
<svg version="1.1" id="Layer_1" xmlns="http://www.w3.org/2000/svg" xmlns:xlink="http://www.w3.org/1999/xlink" x="0px" y="0px"
	 viewBox="0 0 24 24" style="enable-background:new 0 0 24 24;" xml:space="preserve">
<style type="text/css">
	.st0{fill-rule:evenodd;clip-rule:evenodd;fill:#FFFFFF;}
</style>
<path class="st0" d="M12,21.6C6.4,16.1,1,11.3,1,7.2C1,3.4,4.1,2,6.3,2c1.3,0,4.2,0.5,5.7,4.5c1.6-4,4.5-4.4,5.7-4.4
	C20.3,2,23,3.6,23,7.2C23,11.3,17.9,15.8,12,21.6 M17.7,1c-2.2,0-4.4,1-5.7,3.2C10.7,2,8.5,1,6.3,1C3.1,1,0,3.2,0,7.2
	c0,4.7,5.6,9.4,12,15.8c6.4-6.4,12-11.1,12-15.8C24,3.2,20.9,1,17.7,1"/>
<rect x="11.3" y="18.8" class="st0" width="1.8" height="3"/>
<rect x="10.1" y="12.6" class="st0" width="3.8" height="8.4"/>
<rect x="9.6" y="17.9" class="st0" width="5.2" height="2.5"/>
<rect x="1.5" y="8" class="st0" width="21.2" height="3"/>
<rect x="2.1" y="9" class="st0" width="19.8" height="3"/>
<rect x="2.5" y="9.8" class="st0" width="18.6" height="3"/>
<rect x="3.4" y="10.7" class="st0" width="17.2" height="3"/>
<rect x="3.9" y="11.6" class="st0" width="15.9" height="3"/>
<rect x="4.9" y="12.8" class="st0" width="14.1" height="3"/>
<rect x="6" y="13.7" class="st0" width="12" height="3"/>
<rect x="6.9" y="14.1" class="st0" width="10.3" height="3"/>
<rect x="7" y="14.9" class="st0" width="9.6" height="3"/>
<rect x="8.1" y="15.9" class="st0" width="7.5" height="3"/>
<rect x="8.1" y="13.3" transform="matrix(0.5 0.866 -0.866 0.5 19.3303 -3.7755)" class="st0" width="9.6" height="3"/>
<rect x="8.2" y="14.6" transform="matrix(0.851 -0.5252 0.5252 0.851 -6.5376 9.252)" class="st0" width="9.6" height="3"/>
<rect x="13.9" y="6.5" class="st0" width="9.6" height="3"/>
<rect x="6" y="6" class="st0" width="9.6" height="3"/>
<rect x="1" y="7" class="st0" width="9.6" height="3"/>
<rect x="1" y="5" class="st0" width="9.6" height="3"/>
<rect x="1.1" y="4" class="st0" width="9.6" height="3"/>
<rect x="7.2" y="5.5" transform="matrix(-1.836970e-16 1 -1 -1.836970e-16 16.9479 -2.9803)" class="st0" width="5.4" height="3"/>
<rect x="2.6" y="5" class="st0" width="9.6" height="3"/>
<rect x="7.3" y="10" class="st0" width="9.6" height="3"/>
<rect x="7.3" y="10" class="st0" width="9.6" height="3"/>
<rect x="6.4" y="4.1" transform="matrix(-1.836970e-16 1 -1 -1.836970e-16 14.7891 -3.4802)" class="st0" width="5.4" height="3"/>
<rect x="5.4" y="3.5" transform="matrix(-1.836970e-16 1 -1 -1.836970e-16 13.1112 -3.0417)" class="st0" width="5.4" height="3"/>
<rect x="4.1" y="2.8" transform="matrix(-1.836970e-16 1 -1 -1.836970e-16 11.0877 -2.5568)" class="st0" width="5.4" height="3"/>
<rect x="2.1" y="2.9" transform="matrix(-1.836970e-16 1 -1 -1.836970e-16 9.3064 -0.4051)" class="st0" width="5.4" height="3"/>
<rect x="0.9" y="3.8" transform="matrix(-1.836970e-16 1 -1 -1.836970e-16 8.9146 1.7419)" class="st0" width="5.4" height="3"/>
<rect x="10.9" y="6.1" transform="matrix(-1.836970e-16 1 -1 -1.836970e-16 21.2846 -6.0203)" class="st0" width="5.4" height="3"/>
<rect x="11.5" y="4.5" transform="matrix(-1.836970e-16 1 -1 -1.836970e-16 20.2438 -8.2912)" class="st0" width="5.4" height="3"/>
<rect x="13" y="3.2" transform="matrix(-1.836970e-16 1 -1 -1.836970e-16 20.3525 -11.0356)" class="st0" width="5.3" height="2.9"/>
<rect x="15.7" y="2.9" transform="matrix(-1.836970e-16 1 -1 -1.836970e-16 22.9179 -14.0167)" class="st0" width="5.4" height="3"/>
<rect x="17.1" y="3.4" transform="matrix(-1.836970e-16 1 -1 -1.836970e-16 24.7705 -14.9429)" class="st0" width="5.4" height="3"/>
<rect x="17.6" y="4.6" transform="matrix(-1 -1.224647e-16 1.224647e-16 -1 40.5632 12.2525)" class="st0" width="5.4" height="3"/>
<rect x="17" y="3.8" transform="matrix(0.963 -0.2693 0.2693 0.963 -0.6961 5.5129)" class="st0" width="5.4" height="3"/>
</svg>
